<svg xmlns="http://www.w3.org/2000/svg" width="161.125" height="73.969" viewBox="0 0 161.125 73.969">
  <metadata><?xpacket begin="﻿" id="W5M0MpCehiHzreSzNTczkc9d"?>
<x:xmpmeta xmlns:x="adobe:ns:meta/" x:xmptk="Adobe XMP Core 5.6-c142 79.160924, 2017/07/13-01:06:39        ">
   <rdf:RDF xmlns:rdf="http://www.w3.org/1999/02/22-rdf-syntax-ns#">
      <rdf:Description rdf:about=""/>
   </rdf:RDF>
</x:xmpmeta>
                                                                                                    
                                                                                                    
                                                                                                    
                                                                                                    
                                                                                                    
                                                                                                    
                                                                                                    
                                                                                                    
                                                                                                    
                                                                                                    
                                                                                                    
                                                                                                    
                                                                                                    
                                                                                                    
                                                                                                    
                                                                                                    
                                                                                                    
                                                                                                    
                                                                                                    
                                                                                                    
                           
<?xpacket end="w"?></metadata>
<defs>
    <style>
      .cls-1 {
        fill-rule: evenodd;
      }
    </style>
  </defs>
  <path id="magnetic" class="cls-1" d="M764.267,160.215V138.871h-3.808L753.8,154.935l-6.624-16.064h-3.808v21.344h2.656V142.647l7.232,17.568h1.088l7.264-17.568v17.568h2.656Zm23.392,0-8.608-21.344h-3.3l-8.576,21.344h3.04l1.888-4.736h10.624l1.888,4.736h3.04Zm-5.728-7.1h-9.056l4.544-11.488Zm22.128,6.512a11.433,11.433,0,0,0,3.632-2.672v-7.712h-9.984v2.368h7.328v4.352a7.361,7.361,0,0,1-.976.8,8.321,8.321,0,0,1-1.328.752,8.843,8.843,0,0,1-1.6.544,7.753,7.753,0,0,1-1.824.208,8.082,8.082,0,0,1-3.264-.656,7.994,7.994,0,0,1-2.608-1.808,8.263,8.263,0,0,1-1.728-2.752,10.105,10.105,0,0,1,0-6.992,8.3,8.3,0,0,1,1.728-2.736,7.8,7.8,0,0,1,2.608-1.792,8.245,8.245,0,0,1,3.264-.64,7.838,7.838,0,0,1,6.176,2.944l2.112-1.312a11.958,11.958,0,0,0-3.44-2.88,9.779,9.779,0,0,0-4.848-1.12,11.4,11.4,0,0,0-4.272.8,10.639,10.639,0,0,0-3.488,2.24,10.461,10.461,0,0,0-2.352,3.472,12.3,12.3,0,0,0,0,9.056,10.645,10.645,0,0,0,2.352,3.488,10.5,10.5,0,0,0,3.488,2.256,11.4,11.4,0,0,0,4.272.8A10.964,10.964,0,0,0,804.059,159.623Zm25.808,0.592V138.871h-2.656v16.672l-12.288-16.672H812.2v21.344h2.656V143.191l12.448,17.024h2.56Zm19.328,0v-2.368H837.867v-7.36h11.1v-2.368h-11.1v-6.88H849.2v-2.368H835.211v21.344H849.2Zm11.968,0V141.239h6.784v-2.368H851.755v2.368h6.752v18.976h2.656Zm12.736,0V138.871h-2.656v21.344H873.9Zm20.272-.816a11.518,11.518,0,0,0,3.312-3.024l-2.272-1.248a7.1,7.1,0,0,1-2.48,2.24,6.827,6.827,0,0,1-3.376.864,8.245,8.245,0,0,1-3.264-.64,7.8,7.8,0,0,1-2.608-1.792,8.263,8.263,0,0,1-1.728-2.752,10.105,10.105,0,0,1,0-6.992,8.3,8.3,0,0,1,1.728-2.736,7.8,7.8,0,0,1,2.608-1.792,8.245,8.245,0,0,1,3.264-.64,6.726,6.726,0,0,1,3.376.88,7.376,7.376,0,0,1,2.48,2.224l2.24-1.248A11.342,11.342,0,0,0,896,141.079a9.593,9.593,0,0,0-1.824-1.344,9.2,9.2,0,0,0-2.208-.9,10.111,10.111,0,0,0-2.608-.32,11.486,11.486,0,0,0-4.3.8,10.342,10.342,0,0,0-5.824,5.744,12.343,12.343,0,0,0,0,8.992,10.342,10.342,0,0,0,5.824,5.744,11.486,11.486,0,0,0,4.3.8A9.087,9.087,0,0,0,894.171,159.4Z" transform="translate(-742.719 -138.531)"/>
  <path id="Mask" class="cls-1" d="M784.64,211.789V173.1h-11.6l-9.4,23.373L754.249,173.1H742.707v38.685h8.236V184.7l10.9,27.085h3.6l10.9-27.085v27.085h8.294Zm45.182,0L814.916,173.1H804.592l-14.963,38.685h9.395l2.436-6.554h16.588l2.378,6.554h9.4Zm-14.036-13.8H803.722l6.032-16.645Zm32.422,14.5c10.44,0,15.486-5.336,15.486-12.412,0-14.441-22.213-10.323-22.213-16.471,0-2.32,1.971-3.886,5.509-3.886a16.617,16.617,0,0,1,11.252,4.234l4.582-6.032c-3.828-3.538-8.932-5.394-15.08-5.394-9.105,0-14.673,5.336-14.673,11.774,0,14.557,22.271,9.859,22.271,16.7,0,2.2-2.2,4.292-6.728,4.292a16.959,16.959,0,0,1-12.3-5.22l-4.466,6.264C835.449,209.991,840.785,212.485,848.208,212.485Zm55.621-.7-16.413-20.531L902.785,173.1H892.636l-13.688,17.284V173.1h-8.236v38.685h8.236V199.9l3.016-3.6,11.716,15.486h10.149Z" transform="translate(-742.719 -138.531)"/>
</svg>
