<svg xmlns="http://www.w3.org/2000/svg" width="46.71" height="34.91" viewBox="0 0 46.71 34.91">
  <path data-name="“" d="M.01 21.99c0 8.2 5.5 12.9 11.6 12.9a10.543 10.543 0 0010.4-10.5c0-5.6-3.9-9.3-8.7-9.3a7.836 7.836 0 00-2.6.4c1.3-3.8 5.9-8.2 9.1-9.6l-7.3-5.9c-7.8 5.5-12.5 13.2-12.5 22zm24.7 0c0 8.2 5.5 12.9 11.6 12.9a10.543 10.543 0 0010.4-10.5c0-5.6-3.9-9.3-8.7-9.3a7.836 7.836 0 00-2.6.4c1.3-3.8 5.9-8.2 9.1-9.6l-7.3-5.9c-7.8 5.5-12.5 13.2-12.5 22z" fill="#ffd132" fill-rule="evenodd"/>
</svg>
