<svg xmlns="http://www.w3.org/2000/svg" width="46.71" height="34.91" viewBox="0 0 46.71 34.91">
  <metadata><?xpacket begin="﻿" id="W5M0MpCehiHzreSzNTczkc9d"?>
<x:xmpmeta xmlns:x="adobe:ns:meta/" x:xmptk="Adobe XMP Core 5.6-c142 79.160924, 2017/07/13-01:06:39        ">
   <rdf:RDF xmlns:rdf="http://www.w3.org/1999/02/22-rdf-syntax-ns#">
      <rdf:Description rdf:about=""/>
   </rdf:RDF>
</x:xmpmeta>
                                                                                                    
                                                                                                    
                                                                                                    
                                                                                                    
                                                                                                    
                                                                                                    
                                                                                                    
                                                                                                    
                                                                                                    
                                                                                                    
                                                                                                    
                                                                                                    
                                                                                                    
                                                                                                    
                                                                                                    
                                                                                                    
                                                                                                    
                                                                                                    
                                                                                                    
                                                                                                    
                           
<?xpacket end="w"?></metadata>
<defs>
    <style>
      .cls-1 {
        fill: #ffd132;
        fill-rule: evenodd;
      }
    </style>
  </defs>
  <path id="_" data-name="“" class="cls-1" d="M1077.14,2644.58c0,8.2,5.5,12.9,11.6,12.9a10.543,10.543,0,0,0,10.4-10.5c0-5.6-3.9-9.3-8.7-9.3a7.836,7.836,0,0,0-2.6.4c1.3-3.8,5.9-8.2,9.1-9.6l-7.3-5.9C1081.84,2628.08,1077.14,2635.78,1077.14,2644.58Zm24.7,0c0,8.2,5.5,12.9,11.6,12.9a10.543,10.543,0,0,0,10.4-10.5c0-5.6-3.9-9.3-8.7-9.3a7.836,7.836,0,0,0-2.6.4c1.3-3.8,5.9-8.2,9.1-9.6l-7.3-5.9C1106.54,2628.08,1101.84,2635.78,1101.84,2644.58Z" transform="translate(-1077.13 -2622.59)"/>
</svg>
