<svg xmlns="http://www.w3.org/2000/svg" width="161.125" height="73.969" viewBox="0 0 161.125 73.969">
  <defs/>
  <path id="magnetic" class="cls-1" d="M764.267 160.215v-21.344h-3.808l-6.659 16.064-6.624-16.064h-3.808v21.344h2.656v-17.568l7.232 17.568h1.088l7.264-17.568v17.568h2.656zm23.392 0l-8.608-21.344h-3.3l-8.576 21.344h3.04l1.888-4.736h10.624l1.888 4.736h3.04zm-5.728-7.1h-9.056l4.544-11.488zm22.128 6.512a11.433 11.433 0 003.632-2.672v-7.712h-9.984v2.368h7.328v4.352a7.361 7.361 0 01-.976.8 8.321 8.321 0 01-1.328.752 8.843 8.843 0 01-1.6.544 7.753 7.753 0 01-1.824.208 8.082 8.082 0 01-3.264-.656 7.994 7.994 0 01-2.608-1.808 8.263 8.263 0 01-1.728-2.752 10.105 10.105 0 010-6.992 8.3 8.3 0 011.728-2.736 7.8 7.8 0 012.608-1.792 8.245 8.245 0 013.264-.64 7.838 7.838 0 016.176 2.944l2.112-1.312a11.958 11.958 0 00-3.44-2.88 9.779 9.779 0 00-4.848-1.12 11.4 11.4 0 00-4.272.8 10.639 10.639 0 00-3.488 2.24 10.461 10.461 0 00-2.352 3.472 12.3 12.3 0 000 9.056 10.645 10.645 0 002.352 3.488 10.5 10.5 0 003.488 2.256 11.4 11.4 0 004.272.8 10.964 10.964 0 004.752-1.012zm25.808.592v-21.348h-2.656v16.672l-12.288-16.672H812.2v21.344h2.656v-17.024l12.448 17.024h2.56zm19.328 0v-2.368h-11.328v-7.36h11.1v-2.368h-11.1v-6.88H849.2v-2.368h-13.989v21.344H849.2zm11.968 0v-18.98h6.784v-2.368h-16.192v2.368h6.752v18.976h2.656zm12.736 0v-21.348h-2.656v21.344h2.657zm20.272-.816a11.518 11.518 0 003.312-3.024l-2.272-1.248a7.1 7.1 0 01-2.48 2.24 6.827 6.827 0 01-3.376.864 8.245 8.245 0 01-3.264-.64 7.8 7.8 0 01-2.608-1.792 8.263 8.263 0 01-1.728-2.752 10.105 10.105 0 010-6.992 8.3 8.3 0 011.728-2.736 7.8 7.8 0 012.608-1.792 8.245 8.245 0 013.264-.64 6.726 6.726 0 013.376.88 7.376 7.376 0 012.48 2.224l2.24-1.248a11.342 11.342 0 00-1.451-1.668 9.593 9.593 0 00-1.824-1.344 9.2 9.2 0 00-2.208-.9 10.111 10.111 0 00-2.608-.32 11.486 11.486 0 00-4.3.8 10.342 10.342 0 00-5.824 5.744 12.343 12.343 0 000 8.992 10.342 10.342 0 005.824 5.744 11.486 11.486 0 004.3.8 9.087 9.087 0 004.811-1.195z" transform="translate(-742.719 -138.531)"/>
  <path id="Mask" class="cls-1" d="M784.64 211.789V173.1h-11.6l-9.4 23.373-9.391-23.373h-11.542v38.685h8.236V184.7l10.9 27.085h3.6l10.9-27.085v27.085h8.294zm45.182 0L814.916 173.1h-10.324l-14.963 38.685h9.395l2.436-6.554h16.588l2.378 6.554h9.4zm-14.036-13.8h-12.064l6.032-16.645zm32.422 14.5c10.44 0 15.486-5.336 15.486-12.412 0-14.441-22.213-10.323-22.213-16.471 0-2.32 1.971-3.886 5.509-3.886a16.617 16.617 0 0111.252 4.234l4.582-6.032c-3.828-3.538-8.932-5.394-15.08-5.394-9.105 0-14.673 5.336-14.673 11.774 0 14.557 22.271 9.859 22.271 16.7 0 2.2-2.2 4.292-6.728 4.292a16.959 16.959 0 01-12.3-5.22l-4.466 6.264c3.601 3.653 8.937 6.147 16.36 6.147zm55.621-.7l-16.413-20.531 15.369-18.158h-10.149l-13.688 17.284V173.1h-8.236v38.685h8.236V199.9l3.016-3.6 11.716 15.486h10.149z" transform="translate(-742.719 -138.531)"/>
</svg>
